<svg id="Layer_1" xmlns="http://www.w3.org/2000/svg" viewBox="0 0 364.17 127.81"><defs><style>.cls-1{fill:#002540;}.cls-2{fill:#0092ff;}</style></defs><path class="cls-1" d="M895.91,486.93a14.14,14.14,0,0,1,7.4-1.94,13.47,13.47,0,0,1,6.85,1.71,10.81,10.81,0,0,1,3.92,3.86,2.6,2.6,0,0,0,2.19,1.25h8.4a.76.76,0,0,0,.7-1.05,21.26,21.26,0,0,0-8-10.27,24.19,24.19,0,0,0-14-4.09,24.55,24.55,0,0,0-12.31,3.1,22.66,22.66,0,0,0-8.66,8.66,26.49,26.49,0,0,0,0,25.13,22.72,22.72,0,0,0,8.66,8.63,24.55,24.55,0,0,0,12.31,3.1,24.28,24.28,0,0,0,14-4.06,21,21,0,0,0,7.77-9.75,1.16,1.16,0,0,0-1.08-1.6h-7.59A3,3,0,0,0,914,511a11.19,11.19,0,0,1-3.81,3.72,13.29,13.29,0,0,1-6.85,1.74,14.05,14.05,0,0,1-7.4-2,13.19,13.19,0,0,1-5-5.52,20.06,20.06,0,0,1,0-16.61A13.35,13.35,0,0,1,895.91,486.93Z" transform="translate(-778.09 -476.4)"></path><path class="cls-1" d="M959.5,492.22h0a15.14,15.14,0,0,0-5.08-4.3,15.48,15.48,0,0,0-7.4-1.7,16.5,16.5,0,0,0-8.76,2.38,16.78,16.78,0,0,0-6.21,6.82,21.94,21.94,0,0,0-2.28,10.16,22.28,22.28,0,0,0,2.28,10.27,17.13,17.13,0,0,0,6.21,6.92,16,16,0,0,0,8.69,2.45,15.66,15.66,0,0,0,7.47-1.73,14.26,14.26,0,0,0,5.08-4.4h0v4.78a.74.74,0,0,0,.74.74h8.3a.57.57,0,0,0,.57-.57V487.4a.57.57,0,0,0-.57-.57h-8.47a.58.58,0,0,0-.57.57Zm-1.36,19.47a9.63,9.63,0,0,1-3.69,3.82,9.88,9.88,0,0,1-5,1.33,9.35,9.35,0,0,1-4.87-1.37,10,10,0,0,1-3.68-3.92,12.14,12.14,0,0,1-1.4-6,11.75,11.75,0,0,1,1.4-5.89,9.81,9.81,0,0,1,13.53-3.75,9.61,9.61,0,0,1,3.69,3.81,13.78,13.78,0,0,1,0,11.94Z" transform="translate(-778.09 -476.4)"></path><path class="cls-1" d="M997.69,486.29a15.13,15.13,0,0,0-6.52,1.39,13.35,13.35,0,0,0-4.87,3.85h0v-3.95a.76.76,0,0,0-.75-.75h-8a.76.76,0,0,0-.75.75v36.29a.75.75,0,0,0,.75.74h8a.75.75,0,0,0,.75-.74V503.74c0-3,.76-5.3,2.28-6.92a8.2,8.2,0,0,1,6.24-2.42,8,8,0,0,1,6.14,2.42c1.5,1.62,2.25,3.92,2.25,6.92v20.13a.75.75,0,0,0,.75.74h8a.75.75,0,0,0,.75-.74V502.45q0-7.63-4.16-11.9A14.57,14.57,0,0,0,997.69,486.29Z" transform="translate(-778.09 -476.4)"></path><path class="cls-1" d="M1047.06,488.64a21.42,21.42,0,0,0-19.78,0,17.84,17.84,0,0,0-7,6.85,20.17,20.17,0,0,0-2.55,10.23,20.5,20.5,0,0,0,2.48,10.23,17.38,17.38,0,0,0,6.86,6.85,19.83,19.83,0,0,0,9.82,2.42,20.57,20.57,0,0,0,10-2.42A18.09,18.09,0,0,0,1054,516a19.67,19.67,0,0,0,2.63-10.23,20.18,20.18,0,0,0-2.56-10.23A17.84,17.84,0,0,0,1047.06,488.64Zm-1.64,23.22a9.13,9.13,0,0,1-3.65,3.78,9.9,9.9,0,0,1-4.87,1.26,8.88,8.88,0,0,1-6.79-2.89q-2.68-2.91-2.69-8.29t2.76-8.28a9.06,9.06,0,0,1,6.85-2.9,9.3,9.3,0,0,1,6.93,2.9c1.88,1.93,2.83,4.69,2.83,8.28A12.75,12.75,0,0,1,1045.42,511.86Z" transform="translate(-778.09 -476.4)"></path><path class="cls-1" d="M1098.05,493.91c-.17-.28-.35-.55-.54-.82-.09-.12-.17-.24-.26-.35s-.28-.38-.43-.56l-.23-.28a16.29,16.29,0,0,0-3.87-3.3,16.56,16.56,0,0,0-8.77-2.38,15.4,15.4,0,0,0-7.4,1.74,14.5,14.5,0,0,0-5.08,4.33h0v-4.6a.86.86,0,0,0-.85-.85h-7.84a.86.86,0,0,0-.85.85v50.71a.85.85,0,0,0,.85.85h7.84a.85.85,0,0,0,.85-.85V519.23h0a15.81,15.81,0,0,0,5.15,4.29,13.25,13.25,0,0,0,2.84,1.13c.34.1.69.18,1,.25l.47.09.48.07a18,18,0,0,0,2,.16h1.35a16.13,16.13,0,0,0,7.94-2.44,17.18,17.18,0,0,0,6.2-6.92,22.27,22.27,0,0,0,2.28-10.26,21.85,21.85,0,0,0-2.28-10.2A16.43,16.43,0,0,0,1098.05,493.91Zm-8,17.68a10,10,0,0,1-5,4.53,9,9,0,0,1-2.6.66,9.92,9.92,0,0,1-2.44,0,9.51,9.51,0,0,1-3.51-1.23,9.93,9.93,0,0,1-3.68-3.86,13.26,13.26,0,0,1,0-11.86,9.83,9.83,0,0,1,3.68-3.85,9.51,9.51,0,0,1,4.88-1.34,9.88,9.88,0,0,1,4.94,1.3,11.41,11.41,0,0,1,1.09.72h0l.42.35c.19.17.5.46.68.65l.32.37c.14.16.27.32.4.5s.2.28.29.42.33.51.48.78a11.73,11.73,0,0,1,1.4,5.9A12.12,12.12,0,0,1,1090.05,511.59Z" transform="translate(-778.09 -476.4)"></path><path class="cls-1" d="M1132.92,486.83a.78.78,0,0,0-.66.46l-9.71,25.93-.06-.17L1113,487.29a.78.78,0,0,0-.67-.46h-9.16a.66.66,0,0,0-.65,1l14.74,35.85h0l-6.35,14.6a.65.65,0,0,0,.65,1h8.57a.76.76,0,0,0,.65-.43l21.43-51a.65.65,0,0,0-.65-1Z" transform="translate(-778.09 -476.4)"></path><path class="cls-1" d="M908.74,561.31a55.83,55.83,0,0,0-7.57-2.73q-3.42-1-5.29-1.8a9.72,9.72,0,0,1-3.13-2,4.27,4.27,0,0,1-1.27-3.17,5.16,5.16,0,0,1,1.68-4.16,6.58,6.58,0,0,1,4.46-1.43,7.83,7.83,0,0,1,5.15,1.6,5.48,5.48,0,0,1,2,3.1,1.2,1.2,0,0,0,1.16,1H914a1.19,1.19,0,0,0,1.17-1.36,12.92,12.92,0,0,0-4.93-8.63q-4.6-3.58-12-3.58a21.43,21.43,0,0,0-8.72,1.67,13.37,13.37,0,0,0-5.94,4.81,12.83,12.83,0,0,0-2.11,7.36,11.42,11.42,0,0,0,2.08,7.19,13.11,13.11,0,0,0,5,4,58.32,58.32,0,0,0,7.53,2.69,54.93,54.93,0,0,1,5.35,1.74,9,9,0,0,1,3.24,2.15,4.83,4.83,0,0,1,1.3,3.48,5.21,5.21,0,0,1-1.91,4.19,7.9,7.9,0,0,1-5.25,1.6,7.4,7.4,0,0,1-5.15-1.7,6.32,6.32,0,0,1-2-3.66,1.18,1.18,0,0,0-1.16-1h-7.94a1.19,1.19,0,0,0-1.18,1.3,12.66,12.66,0,0,0,2.32,6.27,14.69,14.69,0,0,0,6.31,4.91,22.51,22.51,0,0,0,9,1.71,19.7,19.7,0,0,0,9.07-2,13.5,13.5,0,0,0,7.36-9,16.59,16.59,0,0,0,.42-3.51,11.28,11.28,0,0,0-2.12-7A13.61,13.61,0,0,0,908.74,561.31Z" transform="translate(-778.09 -476.4)"></path><path class="cls-1" d="M930.83,539.22h-7.89a.86.86,0,0,0-.86.86v34.53q0,11.73,12.07,11.73h5.14a.87.87,0,0,0,.86-.87v-6.32a.87.87,0,0,0-.86-.86h-3.57a4.54,4.54,0,0,1-3.11-.85,3.63,3.63,0,0,1-.92-2.76V557.27a.87.87,0,0,1,.86-.87h6.74a.86.86,0,0,0,.86-.86v-6.12a.87.87,0,0,0-.86-.86h-6.74a.87.87,0,0,1-.86-.86v-7.62A.87.87,0,0,0,930.83,539.22Z" transform="translate(-778.09 -476.4)"></path><path class="cls-1" d="M973.83,548.56h7a1.19,1.19,0,0,1,1.19,1.2v35.38a1.19,1.19,0,0,1-1.19,1.2h-7a1.2,1.2,0,0,1-1.2-1.2v-3.58a12.34,12.34,0,0,1-4.69,3.86,14.36,14.36,0,0,1-6.3,1.4,15.36,15.36,0,0,1-7.66-1.88,13.12,13.12,0,0,1-5.23-5.52,18.71,18.71,0,0,1-1.89-8.7v-21a1.19,1.19,0,0,1,1.19-1.2H955a1.2,1.2,0,0,1,1.2,1.2v19.6q0,4.5,2.2,6.92a7.69,7.69,0,0,0,6,2.42,7.77,7.77,0,0,0,6.06-2.42q2.21-2.41,2.2-6.92v-19.6A1.2,1.2,0,0,1,973.83,548.56Z" transform="translate(-778.09 -476.4)"></path><path class="cls-1" d="M1017.61,554a13.83,13.83,0,0,0-5.18-4.26,15.23,15.23,0,0,0-6.83-1.6A15.91,15.91,0,0,0,997,550.5a16.54,16.54,0,0,0-6.07,6.82,22.43,22.43,0,0,0-2.22,10.16A22.78,22.78,0,0,0,991,577.75a16.89,16.89,0,0,0,6.07,6.92,15.43,15.43,0,0,0,8.49,2.45,14.8,14.8,0,0,0,7.23-1.7,12.79,12.79,0,0,0,4.85-4.5v4.4a1.19,1.19,0,0,0,1.19,1.19h7a1.19,1.19,0,0,0,1.2-1.19V537.24a1.19,1.19,0,0,0-1.2-1.19h-7a1.19,1.19,0,0,0-1.19,1.19Zm-1,19.44a9.44,9.44,0,0,1-3.59,3.81,9.31,9.31,0,0,1-4.84,1.33,8.89,8.89,0,0,1-4.74-1.36,10,10,0,0,1-3.59-3.92,12.61,12.61,0,0,1-1.36-6,12.21,12.21,0,0,1,1.36-5.9,9.62,9.62,0,0,1,3.55-3.78,9.28,9.28,0,0,1,4.78-1.3,9.4,9.4,0,0,1,4.84,1.33,9.54,9.54,0,0,1,3.59,3.82,14.16,14.16,0,0,1,0,11.94Z" transform="translate(-778.09 -476.4)"></path><path class="cls-1" d="M1052.34,575l-9-25.84a.83.83,0,0,0-.78-.55h-8.3a.82.82,0,0,0-.77,1.12l13.83,35.7-7.24,17.69a.82.82,0,0,0,.76,1.13h7.79a.81.81,0,0,0,.76-.52l21.39-54a.83.83,0,0,0-.77-1.13h-7.78a.81.81,0,0,0-.77.55Z" transform="translate(-778.09 -476.4)"></path><path class="cls-2" d="M817.9,556.31a5.42,5.42,0,0,0,4.81-2.93c7.07-13.68,14.31-27.27,21.41-40.93,3.54-6.84,7.11-13.66,10.48-20.58,5.42-11.14,9.44-15.18.48-15.18H818.6c-22.27,0-40.89,18.23-40.51,40.5A39.87,39.87,0,0,0,817.9,556.31Z" transform="translate(-778.09 -476.4)"></path><path class="cls-2" d="M838.13,548.47a2.54,2.54,0,0,0-2.25,1.37c-3.31,6.39-6.7,12.75-10,19.14-1.66,3.2-3.37,6.37-4.91,9.62-2,4.28-4.41,7.1-.22,7.1H837.8a18.89,18.89,0,0,0,19-18.94A18.65,18.65,0,0,0,838.13,548.47Z" transform="translate(-778.09 -476.4)"></path></svg>